# xmcd
#
# Track frame offsets: 
#        150
#        15395
#        33201
#        48106
#        64313
#        78931
#        88604
#        100961
#        115358
#        127915
#        139553
#        157352
#        172392
#        189255
#        198585
#
# Disc length: 2805 seconds
#
# Revision: 0
# Processed by: cddbd v1.5.2PL0 Copyright (c) Steve Scherf et al.
# Submitted via: ExactAudioCopyFreeDBPlugin 1.0
#
DISCID=c70af30f
DTITLE=Various Artist - Musik Für Unterwegs - Trucker and Country - CD4
DYEAR=1900
DGENRE=Country
TTITLE0=Tony Christie - (Is This The Way To) Amarillo
TTITLE1=Windows - Summer Wine
TTITLE2=Tony Orlando and Dawn - Tie A Yellow Ribbon (Round The Old Oal T
TTITLE2=ree)
TTITLE3=Redbone - The Witch Queen Of New Orleans
TTITLE4=Lee Hazlewood - These Boots Are Made For Walking
TTITLE5=Billy Swan - I Can Help
TTITLE6=Bobby Bare - Green Green Grass Of Home
TTITLE7=Freddy Fender - Wasted Days And Wasted Nights
TTITLE8=Billy Joe Royal - Raindrops Keep Fallin' On My Head
TTITLE9=Donna Fargo - The Happiest Girl In The Whole U.S.A.
TTITLE10=Bobby Goldsboro - Honey
TTITLE11=Billie Davis - Angel Of The Morning
TTITLE12=Linda Ronstadt - I'm Gonna Love (Live -- Bearbeitet)
TTITLE13=Frank Ifield - Remember You
TTITLE14=Skeeter Davis - The End Of The World
EXTD=
EXTT0=
EXTT1=
EXTT2=
EXTT3=
EXTT4=
EXTT5=
EXTT6=
EXTT7=
EXTT8=
EXTT9=
EXTT10=
EXTT11=
EXTT12=
EXTT13=
EXTT14=
PLAYORDER=
